<?xml version="1.0" standalone="no"?>
<!DOCTYPE svg PUBLIC "-//W3C//DTD SVG 20010904//EN"
 "http://www.w3.org/TR/2001/REC-SVG-20010904/DTD/svg10.dtd">
<svg version="1.0" xmlns="http://www.w3.org/2000/svg"
 width="322.000000pt" height="322.000000pt" viewBox="0 0 322.000000 322.000000"
 preserveAspectRatio="xMidYMid meet">
<metadata>
Created by potrace 1.11, written by Peter Selinger 2001-2013
</metadata>
<g transform="translate(0.000000,322.000000) scale(0.100000,-0.100000)"
fill="#000000" stroke="none">
<path d="M1865 2646 c-41 -19 -72 -50 -90 -92 -17 -40 -16 -57 4 -65 23 -9 71
2 71 18 0 23 47 63 74 63 53 0 96 -67 74 -116 -21 -45 -38 -48 -303 -49 l-250
0 -3 -43 -3 -43 273 3 c268 3 274 3 306 26 126 91 73 295 -81 308 -23 2 -55
-3 -72 -10z"/>
<path d="M2314 2636 c-27 -13 -61 -36 -76 -52 -35 -38 -68 -110 -68 -151 0
-31 2 -33 38 -33 36 0 38 2 50 44 41 155 241 169 298 21 29 -77 -1 -169 -69
-207 -17 -10 -218 -14 -897 -18 l-875 -5 -3 -43 -3 -42 888 2 c986 3 911 -2
984 70 47 48 71 109 71 182 -1 73 -20 123 -69 177 -68 75 -178 97 -269 55z"/>
<path d="M1119 2404 c-1 -2 -1 -13 -1 -24 0 -59 0 -60 42 -60 l40 0 0 43 0 43
-40 1 c-22 0 -40 -1 -41 -3z"/>
<path d="M1279 2398 c-1 -5 -1 -19 -1 -33 0 -14 0 -29 1 -35 1 -5 20 -10 44
-10 42 0 43 0 42 35 -1 19 -5 38 -9 42 -10 10 -76 11 -77 1z"/>
<path d="M710 2025 l0 -46 46 2 45 3 -3 40 c-3 40 -4 41 -46 44 l-42 3 0 -46z"/>
<path d="M874 2028 l2 -43 42 -1 43 -1 -3 41 c-3 40 -4 41 -44 44 l-41 3 1
-43z"/>
<path d="M1039 2055 c-1 -8 -1 -24 -1 -35 0 -11 0 -24 1 -30 1 -7 189 -10 542
-10 537 0 541 0 571 -21 82 -59 65 -189 -27 -219 -64 -21 -139 22 -151 87 -6
31 -9 33 -45 33 -21 0 -40 -4 -43 -9 -3 -5 1 -31 9 -59 42 -139 208 -192 318
-101 121 99 94 297 -48 360 -38 17 -79 18 -583 18 -469 0 -542 -2 -543 -14z"/>
<path d="M1744 1243 l1 -208 25 0 25 0 3 208 2 207 -29 0 -29 0 2 -207z"/>
<path d="M1062 1383 c-11 -27 -48 -106 -81 -177 -34 -70 -64 -139 -67 -151 -5
-21 -3 -24 22 -22 22 2 32 12 51 49 l23 46 81 -1 80 -1 20 -47 c18 -41 24 -46
50 -45 16 0 29 4 29 8 0 4 -17 45 -38 90 -21 46 -60 131 -87 191 -27 59 -52
107 -56 107 -3 0 -16 -21 -27 -47z m56 -136 c12 -29 22 -55 22 -59 0 -4 -22
-6 -50 -5 -27 0 -50 4 -50 8 0 14 43 109 49 109 4 0 17 -24 29 -53z"/>
<path d="M1614 1396 c-10 -26 1 -51 22 -54 27 -4 47 21 39 48 -7 24 -53 28
-61 6z"/>
<path d="M1383 1278 c-87 -23 -111 -169 -36 -227 31 -25 89 -27 121 -5 21 14
22 14 22 -10 0 -26 -19 -76 -29 -76 -3 0 -16 -3 -27 -6 -15 -4 -31 3 -52 24
-21 21 -37 29 -52 25 -11 -3 -20 -7 -20 -10 0 -17 33 -61 55 -73 39 -21 109
-18 136 6 40 36 45 63 45 209 l-1 140 -27 3 c-21 3 -28 -1 -28 -14 0 -15 -2
-16 -17 -2 -25 21 -52 26 -90 16z m91 -70 c22 -31 20 -84 -4 -108 -43 -43
-110 -10 -110 53 0 48 24 77 65 77 24 0 39 -7 49 -22z"/>
<path d="M1955 1280 c-68 -15 -100 -58 -97 -132 4 -96 83 -144 174 -107 15 6
34 21 42 34 14 21 14 24 -7 38 -20 13 -24 12 -40 -9 -11 -15 -28 -24 -45 -24
-33 0 -45 8 -61 38 -13 25 -12 25 113 23 l59 -1 -7 42 c-11 70 -67 112 -131
98z m60 -66 c9 -9 14 -18 13 -20 -6 -6 -98 -8 -103 -2 -11 10 26 38 50 38 13
0 31 -7 40 -16z"/>
<path d="M2205 1282 c-35 -7 -55 -33 -55 -71 0 -32 6 -39 48 -66 26 -16 47
-37 47 -45 0 -20 -39 -25 -54 -7 -14 17 -51 11 -51 -9 0 -42 92 -71 131 -41
36 28 46 80 19 111 -5 7 -28 21 -50 31 -22 10 -40 24 -40 32 0 15 26 18 35 3
6 -10 55 8 55 20 0 10 -32 36 -50 42 -8 2 -24 2 -35 0z"/>
<path d="M1617 1273 c-2 -5 -3 -60 -3 -122 l1 -115 28 -1 27 -2 0 124 0 123
-24 0 c-14 0 -27 -3 -29 -7z"/>
<path d="M1234 946 c-2 -6 -3 -101 -1 -210 l2 -199 24 -4 c14 -2 27 1 31 7 4
6 16 6 36 -2 17 -6 46 -8 67 -4 92 17 116 170 35 227 -36 26 -92 27 -119 3
-18 -16 -19 -15 -20 22 0 21 0 67 1 100 1 59 0 62 -25 66 -15 3 -28 1 -31 -6z
m166 -236 c45 -45 13 -130 -48 -130 -38 0 -64 30 -64 75 0 20 8 45 18 56 22
25 69 24 94 -1z"/>
<path d="M771 836 c-28 -59 -51 -108 -51 -111 0 -2 -20 -45 -44 -95 -25 -49
-44 -90 -43 -91 1 0 14 -3 29 -5 24 -4 30 1 52 44 l25 49 81 0 81 1 20 -47
c16 -37 25 -47 44 -46 43 0 45 -8 -48 195 -11 25 -37 83 -57 128 l-37 84 -52
-106z m77 -89 c12 -29 22 -55 22 -58 0 -2 -22 -6 -50 -6 -27 -1 -50 2 -50 6 0
15 43 111 49 111 4 0 17 -24 29 -53z"/>
<path d="M1817 904 c-25 -25 8 -70 43 -59 32 10 24 59 -10 63 -14 2 -29 0 -33
-4z"/>
<path d="M1949 866 c0 -1 -2 -19 -4 -41 -1 -21 -7 -41 -14 -43 -15 -5 -15 -63
1 -59 9 1 12 -24 13 -93 0 -94 0 -95 25 -95 25 0 25 2 30 95 4 76 8 95 20 95
17 0 30 24 23 43 -3 6 -14 12 -24 12 -16 0 -19 7 -19 43 0 39 -2 43 -25 43
-14 0 -25 0 -26 0z"/>
<path d="M1145 782 c-11 -2 -24 -8 -29 -12 -5 -5 -16 -4 -26 2 -10 6 -24 8
-33 5 -14 -5 -16 -24 -14 -124 l2 -118 25 0 c27 0 27 0 29 127 1 44 25 72 56
64 17 -4 25 0 33 19 10 20 8 26 -6 33 -9 5 -26 7 -37 4z"/>
<path d="M1620 781 c-67 -15 -95 -62 -91 -154 1 -19 13 -41 35 -63 27 -27 42
-34 75 -34 49 0 86 16 106 46 14 22 13 24 -6 35 -17 9 -25 7 -43 -10 -38 -35
-106 -19 -106 25 0 15 6 16 98 14 71 -2 81 8 63 63 -19 58 -74 90 -131 78z
m66 -68 c17 -17 16 -18 -14 -21 -18 -2 -44 -2 -59 0 -26 3 -26 4 -9 21 10 9
28 17 41 17 13 0 31 -8 41 -17z"/>
<path d="M2147 773 c-38 -15 -78 -78 -72 -111 2 -9 4 -28 4 -40 1 -13 16 -39
35 -58 27 -27 42 -34 75 -34 50 0 86 16 106 47 15 22 14 24 -10 35 -22 10 -28
9 -41 -10 -27 -38 -104 -21 -104 24 0 16 1 16 98 15 66 -1 72 0 72 19 0 28
-24 82 -43 98 -29 24 -81 30 -120 15z m89 -60 c17 -17 16 -18 -14 -21 -18 -2
-44 -2 -59 0 -26 3 -26 4 -9 21 10 9 28 17 41 17 13 0 31 -8 41 -17z"/>
<path d="M2475 782 c-11 -2 -24 -8 -29 -13 -13 -12 -29 -11 -21 1 4 6 -7 10
-24 10 -28 0 -31 -3 -32 -32 -1 -41 -1 -201 0 -208 2 -10 41 -9 47 1 3 6 7 44
8 84 3 79 15 105 50 105 38 0 46 -19 46 -110 l0 -87 27 2 28 1 0 87 c1 49 -5
101 -11 116 -13 30 -54 50 -89 43z"/>
<path d="M1819 778 c-3 -17 -3 -238 1 -239 3 -1 15 -3 28 -4 24 -3 24 -4 24
110 0 139 1 135 -27 135 -14 0 -25 -1 -26 -2z"/>
</g>
</svg>
